<mxfile host="app.diagrams.net" modified="2023-11-06T01:39:06.276Z" agent="Mozilla/5.0 (Macintosh; Intel Mac OS X 10_15_7) AppleWebKit/537.36 (KHTML, like Gecko) Chrome/118.0.0.0 Safari/537.36" etag="tPj4eiYASkqFQdwi6Ued" version="22.0.8" type="device">
  <diagram name="第 1 页" id="cGqeaS1IggpPrjZ0a_d4">
    <mxGraphModel dx="2074" dy="1156" grid="1" gridSize="10" guides="1" tooltips="1" connect="1" arrows="1" fold="1" page="1" pageScale="1" pageWidth="827" pageHeight="1169" math="0" shadow="0">
      <root>
        <mxCell id="0" />
        <mxCell id="1" parent="0" />
        <mxCell id="pEc1kKRXa4avssk3VJGL-1" value="&lt;font style=&quot;font-size: 12px;&quot;&gt;node&lt;/font&gt;" style="ellipse;whiteSpace=wrap;html=1;aspect=fixed;" vertex="1" parent="1">
          <mxGeometry x="210" y="600" width="70" height="70" as="geometry" />
        </mxCell>
        <mxCell id="pEc1kKRXa4avssk3VJGL-2" value="&lt;font style=&quot;font-size: 12px;&quot;&gt;new_node&lt;/font&gt;" style="ellipse;whiteSpace=wrap;html=1;aspect=fixed;" vertex="1" parent="1">
          <mxGeometry x="380" y="600" width="70" height="70" as="geometry" />
        </mxCell>
        <mxCell id="pEc1kKRXa4avssk3VJGL-3" value="" style="endArrow=classic;html=1;rounded=0;exitX=0.957;exitY=0.343;exitDx=0;exitDy=0;exitPerimeter=0;entryX=0.029;entryY=0.314;entryDx=0;entryDy=0;entryPerimeter=0;" edge="1" parent="1" source="pEc1kKRXa4avssk3VJGL-1" target="pEc1kKRXa4avssk3VJGL-2">
          <mxGeometry width="50" height="50" relative="1" as="geometry">
            <mxPoint x="250" y="580" as="sourcePoint" />
            <mxPoint x="300" y="530" as="targetPoint" />
          </mxGeometry>
        </mxCell>
        <mxCell id="pEc1kKRXa4avssk3VJGL-10" value="&lt;font style=&quot;font-size: 14px;&quot;&gt;next&lt;/font&gt;" style="edgeLabel;html=1;align=center;verticalAlign=middle;resizable=0;points=[];" vertex="1" connectable="0" parent="pEc1kKRXa4avssk3VJGL-3">
          <mxGeometry x="-0.2769" y="-2" relative="1" as="geometry">
            <mxPoint as="offset" />
          </mxGeometry>
        </mxCell>
        <mxCell id="pEc1kKRXa4avssk3VJGL-4" value="" style="endArrow=classic;html=1;rounded=0;exitX=0.043;exitY=0.7;exitDx=0;exitDy=0;exitPerimeter=0;entryX=0.986;entryY=0.7;entryDx=0;entryDy=0;entryPerimeter=0;" edge="1" parent="1" source="pEc1kKRXa4avssk3VJGL-2" target="pEc1kKRXa4avssk3VJGL-1">
          <mxGeometry width="50" height="50" relative="1" as="geometry">
            <mxPoint x="290" y="732" as="sourcePoint" />
            <mxPoint x="395" y="730" as="targetPoint" />
          </mxGeometry>
        </mxCell>
        <mxCell id="pEc1kKRXa4avssk3VJGL-11" value="&lt;font style=&quot;font-size: 14px;&quot;&gt;prev&lt;/font&gt;" style="edgeLabel;html=1;align=center;verticalAlign=middle;resizable=0;points=[];" vertex="1" connectable="0" parent="pEc1kKRXa4avssk3VJGL-4">
          <mxGeometry x="-0.0959" y="-1" relative="1" as="geometry">
            <mxPoint as="offset" />
          </mxGeometry>
        </mxCell>
        <mxCell id="pEc1kKRXa4avssk3VJGL-5" value="" style="endArrow=classic;html=1;rounded=0;exitX=-0.014;exitY=0.286;exitDx=0;exitDy=0;exitPerimeter=0;entryX=0.929;entryY=0.243;entryDx=0;entryDy=0;entryPerimeter=0;" edge="1" parent="1" source="pEc1kKRXa4avssk3VJGL-1" target="pEc1kKRXa4avssk3VJGL-2">
          <mxGeometry width="50" height="50" relative="1" as="geometry">
            <mxPoint x="290" y="520" as="sourcePoint" />
            <mxPoint x="560" y="550" as="targetPoint" />
            <Array as="points">
              <mxPoint x="209" y="550" />
              <mxPoint x="450" y="550" />
              <mxPoint x="480" y="590" />
            </Array>
          </mxGeometry>
        </mxCell>
        <mxCell id="pEc1kKRXa4avssk3VJGL-8" value="&lt;font style=&quot;font-size: 14px;&quot;&gt;prev&lt;/font&gt;" style="edgeLabel;html=1;align=center;verticalAlign=middle;resizable=0;points=[];" vertex="1" connectable="0" parent="pEc1kKRXa4avssk3VJGL-5">
          <mxGeometry x="-0.0868" y="1" relative="1" as="geometry">
            <mxPoint as="offset" />
          </mxGeometry>
        </mxCell>
        <mxCell id="pEc1kKRXa4avssk3VJGL-6" value="" style="endArrow=classic;html=1;rounded=0;exitX=0.971;exitY=0.7;exitDx=0;exitDy=0;exitPerimeter=0;entryX=0;entryY=1;entryDx=0;entryDy=0;" edge="1" parent="1" source="pEc1kKRXa4avssk3VJGL-2" target="pEc1kKRXa4avssk3VJGL-1">
          <mxGeometry width="50" height="50" relative="1" as="geometry">
            <mxPoint x="510" y="680" as="sourcePoint" />
            <mxPoint x="160" y="710" as="targetPoint" />
            <Array as="points">
              <mxPoint x="448" y="710" />
              <mxPoint x="200" y="710" />
            </Array>
          </mxGeometry>
        </mxCell>
        <mxCell id="pEc1kKRXa4avssk3VJGL-9" value="&lt;font style=&quot;font-size: 14px;&quot;&gt;next&lt;/font&gt;" style="edgeLabel;html=1;align=center;verticalAlign=middle;resizable=0;points=[];" vertex="1" connectable="0" parent="pEc1kKRXa4avssk3VJGL-6">
          <mxGeometry x="-0.1354" y="3" relative="1" as="geometry">
            <mxPoint as="offset" />
          </mxGeometry>
        </mxCell>
      </root>
    </mxGraphModel>
  </diagram>
</mxfile>
